<?xml version="1.0" encoding="UTF-8" standalone="no"?>
<svg width="80px" height="80px" viewBox="0 0 80 80" version="1.1" xmlns="http://www.w3.org/2000/svg" xmlns:xlink="http://www.w3.org/1999/xlink">
    <!-- Generator: Sketch 46.2 (44496) - http://www.bohemiancoding.com/sketch -->
    <title>facebook</title>
    <desc>Created with Sketch.</desc>
    <defs>
        <linearGradient x1="6.80664062%" y1="0%" x2="91.2744141%" y2="100%" id="linearGradient-1">
            <stop stop-color="#D87CDA" offset="0%"></stop>
            <stop stop-color="#81DFB5" offset="100%"></stop>
        </linearGradient>
    </defs>
    <g id="Welcome" stroke="none" stroke-width="1" fill="none" fill-rule="evenodd">
        <g id="Tablet-Portrait" transform="translate(-920.000000, -734.000000)" fill-rule="nonzero" fill="url(#linearGradient-1)">
            <g id="facebook" transform="translate(920.000000, 734.000000)">
                <path d="M69.1835697,0 L10.7749633,0 C4.82444988,0 0.000391198044,4.82386308 0.000391198044,10.7745721 L0.000391198044,69.1835697 C0.000391198044,75.1342787 4.82425428,79.9581418 10.7749633,79.9581418 L39.5818093,79.9581418 L39.6309046,51.3854279 L32.2077262,51.3854279 C31.2430318,51.3854279 30.4600489,50.605379 30.4563325,49.6406846 L30.4207335,40.4305134 C30.4170171,39.4605379 31.2023472,38.6722738 32.1723227,38.6722738 L39.5820049,38.6722738 L39.5820049,29.7729095 C39.5820049,19.4452812 45.8894866,13.8218093 55.1023961,13.8218093 L62.6622983,13.8218093 C63.6295355,13.8218093 64.4138875,14.6059658 64.4138875,15.5733985 L64.4138875,23.3394621 C64.4138875,24.3065037 63.6301222,25.0904645 62.6632763,25.0910513 L58.0238631,25.0932029 C53.0135941,25.0932029 52.043423,27.4740342 52.043423,30.9680196 L52.043423,38.6724694 L63.0527139,38.6724694 C64.1017115,38.6724694 64.915599,39.5884597 64.7919804,40.63022 L63.7003423,49.8403912 C63.5958924,50.7217604 62.8485086,51.3858191 61.9610758,51.3858191 L52.0925183,51.3858191 L52.043423,79.958533 L69.1839609,79.958533 C75.1344743,79.958533 79.9583374,75.1346699 79.9583374,69.1841565 L79.9583374,10.7745721 C79.9581418,4.82386308 75.1342787,0 69.1835697,0 Z" id="Shape"></path>
            </g>
        </g>
    </g>
</svg>