<?xml version="1.0" encoding="UTF-8" standalone="no"?>
<svg width="80px" height="80px" viewBox="0 0 80 80" version="1.1" xmlns="http://www.w3.org/2000/svg" xmlns:xlink="http://www.w3.org/1999/xlink">
    <!-- Generator: Sketch 46.2 (44496) - http://www.bohemiancoding.com/sketch -->
    <title>instagram</title>
    <desc>Created with Sketch.</desc>
    <defs>
        <linearGradient x1="8.77512209%" y1="12.1257122%" x2="100%" y2="100%" id="linearGradient-1">
            <stop stop-color="#D87CDA" offset="0%"></stop>
            <stop stop-color="#81DFB5" offset="100%"></stop>
        </linearGradient>
    </defs>
    <g id="Welcome" stroke="none" stroke-width="1" fill="none" fill-rule="evenodd">
        <g id="Tablet-Portrait" transform="translate(-766.000000, -734.000000)" fill-rule="nonzero" fill="url(#linearGradient-1)">
            <g id="instagram" transform="translate(766.000000, 734.000000)">
                <path d="M56.0692754,0 L23.7907246,0 C10.6724638,0 0,10.6724638 0,23.7907246 L0,56.0692754 C0,69.1875362 10.6724638,79.86 23.7907246,79.86 L56.0692754,79.86 C69.1875362,79.86 79.86,69.1875362 79.86,56.0692754 L79.86,23.7907246 C79.8598551,10.6724638 69.1873913,0 56.0692754,0 Z M71.826087,56.0692754 C71.826087,64.7714493 64.7714493,71.826087 56.0692754,71.826087 L23.7907246,71.826087 C15.0885507,71.826087 8.03391304,64.7714493 8.03391304,56.0692754 L8.03391304,23.7907246 C8.03391304,15.0884058 15.0885507,8.03391304 23.7907246,8.03391304 L56.0692754,8.03391304 C64.7714493,8.03391304 71.826087,15.0884058 71.826087,23.7907246 L71.826087,56.0692754 L71.826087,56.0692754 Z" id="Shape"></path>
                <path d="M39.93,19.2753623 C28.5410145,19.2753623 19.2753623,28.5410145 19.2753623,39.9298551 C19.2753623,51.3186957 28.5410145,60.5844928 39.93,60.5844928 C51.3189855,60.5844928 60.5846377,51.3188406 60.5846377,39.9298551 C60.5846377,28.5408696 51.3189855,19.2753623 39.93,19.2753623 Z M39.93,52.5507246 C32.9597101,52.5507246 27.3092754,46.9002899 27.3092754,39.93 C27.3092754,32.9597101 32.9598551,27.3092754 39.93,27.3092754 C46.9002899,27.3092754 52.5507246,32.9597101 52.5507246,39.93 C52.5507246,46.9001449 46.9001449,52.5507246 39.93,52.5507246 Z" id="Shape"></path>
                <circle id="Oval" cx="60.6246377" cy="19.4304348" r="4.94927536"></circle>
            </g>
        </g>
    </g>
</svg>