<?xml version="1.0" encoding="UTF-8" standalone="no"?>
<svg width="80px" height="80px" viewBox="0 0 80 80" version="1.1" xmlns="http://www.w3.org/2000/svg" xmlns:xlink="http://www.w3.org/1999/xlink">
    <!-- Generator: Sketch 46.2 (44496) - http://www.bohemiancoding.com/sketch -->
    <title>twitter</title>
    <desc>Created with Sketch.</desc>
    <defs>
        <linearGradient x1="6.80664062%" y1="0%" x2="91.2744141%" y2="100%" id="linearGradient-1">
            <stop stop-color="#D87CDA" offset="0%"></stop>
            <stop stop-color="#81DFB5" offset="100%"></stop>
        </linearGradient>
    </defs>
    <g id="Welcome" stroke="none" stroke-width="1" fill="none" fill-rule="evenodd">
        <g id="Tablet-Portrait" transform="translate(-617.000000, -734.000000)" fill-rule="nonzero" fill="url(#linearGradient-1)">
            <g id="twitter" transform="translate(617.000000, 734.000000)">
                <path d="M72,0 L8,0 C3.6,0 0,3.6 0,8 L0,72 C0,76.4 3.6,80 8,80 L72,80 C76.4,80 80,76.4 80,72 L80,8 C80,3.6 76.4,0 72,0 Z M62.8,29.2 C62.4,47.6 50.8,60.4 33.2,61.2 C26,61.6 20.8,59.2 16,56.4 C21.2,57.2001569 28,55.2001569 31.6,52 C26.4,51.6 23.2,48.8 21.6,44.4 C23.2,44.8 24.8,44.4 26,44.4 C21.2,42.8 18,40 17.6,33.6 C18.8,34.4 20.4,34.8 22,34.8 C18.4,32.8 16,25.2 18.8,20.4 C24,26 30.4,30.8 40.8,31.6 C38,20.4 53.2001569,14.4 59.2001569,22 C62.0001569,21.6 64.0001569,20.4 66.0001569,19.6 C65.2001569,22.4 63.6001569,24 61.6001569,25.6 C63.6001569,25.2 65.6001569,24.8 67.2001569,24 C66.8,26 64.8,27.6 62.8,29.2 Z" id="Shape"></path>
            </g>
        </g>
    </g>
</svg>